<svg height="548" viewBox="0 0 548 548" width="548" xmlns="http://www.w3.org/2000/svg"><g fill="none" fill-rule="evenodd"><path d="m369.746685 160.234152c4.783964 0 13.84208 1.857569 22.122229 7.099418 10.062637 6.370274 19.350241 16.071583 23.178109 12.303091 3.674242-3.617249-2.953135-15.34156-5.6766-28.102302-2.512807-11.773706-1.007571-24.559997-1.007571-29.676913 0-21.19487-17.289047-38.376707-38.616167-38.376707s-38.616167 17.181837-38.616167 38.376707c0 21.194869 17.289047 38.376706 38.616167 38.376706z" fill="#829adf" stroke="#536bb0" stroke-width="5" transform="matrix(-1 0 0 1 747.261036 0)"/><path d="m445.313335 298.117765c6.078448 0 17.587583 2.374625 28.108243 9.075544 12.785469 8.143444 24.586189 20.545117 29.449833 15.727664 4.668449-4.624113-3.752218-19.611892-7.212621-35.924592-3.192743-15.050923-1.280207-31.396286-1.280207-37.937498 0-27.094473-21.96726-49.058883-49.065248-49.058883s-49.065248 21.96441-49.065248 49.058883c0 27.094472 21.96726 49.058882 49.065248 49.058882z" fill="#536bb0" stroke="#829adf" stroke-width="8" transform="matrix(-.54463904 -.83867057 -.83867057 .54463904 915.202459 496.914392)"/><path d="m381.407593 410.034889c3.62699 0 10.494454 1.417115 16.772098 5.416051 7.629048 4.859797 14.6705 12.260795 17.57262 9.385863 2.785649-2.759551-2.238936-11.703871-4.303748-21.438869-1.905099-8.982003-.763895-18.736493-.763895-22.64012 0-16.169282-13.107793-29.277075-29.277075-29.277075s-29.277075 13.107793-29.277075 29.277075 13.107793 29.277075 29.277075 29.277075z" fill="#829adf" stroke="#536bb0" stroke-width="5" transform="matrix(-.1391731 -.99026807 -.99026807 .1391731 822.543694 715.026324)"/><path d="m281.306969 506.117765c6.07766 0 17.585303 2.374625 28.104598 9.075544 12.78381 8.143444 24.582999 20.545117 29.446011 15.727664 4.667844-4.624113-3.751731-19.611892-7.211685-35.924592-3.192329-15.050923-1.280041-31.396286-1.280041-37.937498 0-27.094473-21.96441-49.058883-49.058883-49.058883-27.094472 0-49.058882 21.96441-49.058882 49.058883 0 27.094472 21.96441 49.058882 49.058882 49.058882z" fill="#536bb0" stroke="#829adf" stroke-width="8" transform="matrix(.68199836 -.7313537 -.7313537 -.68199836 434.761373 999.882703)"/><path d="m148.746685 446.234152c4.783964 0 13.84208 1.857569 22.122229 7.099418 10.062637 6.370274 19.350241 16.071583 23.178109 12.303091 3.674242-3.617249-2.953135-15.34156-5.6766-28.102302-2.512807-11.773706-1.007571-24.559997-1.007571-29.676913 0-21.19487-17.289047-38.376707-38.616167-38.376707s-38.616167 17.181837-38.616167 38.376707c0 21.194869 17.289047 38.376706 38.616167 38.376706z" fill="#829adf" stroke="#536bb0" stroke-width="5" transform="matrix(1 0 0 -1 0 835.961478)"/><path d="m82.3863751 296.992454c3.9960169 0 11.5622079 1.561298 18.4785679 5.967104 8.405261 5.354255 16.163142 13.508264 19.360538 10.340824 3.069073-3.040321-2.466736-12.894676-4.741631-23.620158-2.098933-9.895872-.841617-20.642828-.841617-24.943628 0-17.814418-14.44144-32.255857-32.2558579-32.255857-17.8144182 0-32.2558574 14.441439-32.2558574 32.255857 0 17.814419 14.4414392 32.255858 32.2558574 32.255858z" fill="#536bb0" stroke="#829adf" stroke-width="8" transform="matrix(.52991926 .8480481 .8480481 -.52991926 -191.471889 345.424431)"/><path d="m88.3994917 166.108301c7.2040868 0 20.8445433 2.834228 33.3134743 10.832101 15.153148 9.719593 29.139187 24.52159 34.903505 18.771727 5.532977-5.519102-4.447073-23.407742-8.548292-42.877739-3.783991-17.964005-1.517282-37.472986-1.517282-45.28024 0-32.3385639-26.035271-58.55415-58.1514053-58.55415-32.1161341 0-58.1514049 26.2155861-58.1514049 58.55415 0 32.338565 26.0352708 58.554151 58.1514049 58.554151z" fill="#829adf" stroke="#536bb0" stroke-width="5" transform="matrix(-.05233596 .99862953 .99862953 .05233596 -23.650782 22.443754)"/><path d="m243.104381 120.428466c6.191012 0 17.91328 2.418913 28.628767 9.244809 13.022236 8.295324 25.041489 20.928297 29.9952 16.020995 4.754902-4.710356-3.821704-19.977667-7.346188-36.59461-3.251868-15.3316326-1.303915-31.9818467-1.303915-38.6450574 0-27.5998028-22.374061-49.9738636-49.973864-49.9738636-27.599802 0-49.973863 22.3740608-49.973863 49.9738636s22.374061 49.9738634 49.973863 49.9738634z" fill="#536bb0" stroke="#829adf" stroke-width="8" transform="matrix(-.7193398 .69465837 .69465837 .7193398 368.521478 -148.892342)"/><circle cx="253.130518" cy="273.480739" fill="#5b6684" r="142" stroke="#2e3549" stroke-width="12"/><g fill="#abb7d8"><circle cx="295.630518" cy="290.980739" r="9.5"/><circle cx="269.630518" cy="316.980739" r="16.5"/><circle cx="328.130518" cy="325.480739" r="23"/></g></g></svg>