<svg height="500" viewBox="0 0 500 500" width="500" xmlns="http://www.w3.org/2000/svg"><g fill="none" transform="translate(17)"><path d="m319.516925 145.13963c4.333301 0 12.538116 1.682581 20.038251 6.430633 9.114707 5.770175 17.527392 14.557593 20.994664 11.144104 3.328118-3.276494-2.674941-13.896341-5.141848-25.454984-2.276093-10.664589-.912655-22.246374-.912655-26.881262 0-19.1982514-15.660368-34.7615096-34.978412-34.7615096-19.318043 0-34.978412 15.5632582-34.978412 34.7615096 0 19.198251 15.660369 34.761509 34.978412 34.761509z" fill="#fd8879" stroke="#ffbcb3" stroke-width="5" transform="matrix(-1 0 0 1 646.06978 0)"/><path d="m387.964974 270.034208c5.505841 0 15.930782 2.150929 25.460366 8.220602 11.58104 7.376308 22.270098 18.609707 26.675573 14.246072 4.228668-4.188508-3.398748-17.764395-6.533171-32.540391-2.891978-13.633083-1.159608-28.438665-1.159608-34.363676 0-24.542095-19.89788-44.437394-44.44316-44.437394-24.545279 0-44.443159 19.895299-44.443159 44.437394 0 24.542094 19.89788 44.437393 44.443159 44.437393z" fill="#ffbcb3" stroke="#fd8879" stroke-width="8" transform="matrix(-.54463904 -.83867057 -.83867057 .54463904 805.202528 437.189302)"/><path d="m330.079341 371.408412c3.285317 0 9.505846 1.283619 15.192118 4.905844 6.910369 4.40199 13.288496 11.105792 15.917228 8.501687 2.523233-2.499593-2.028022-10.601332-3.898322-19.419265-1.725634-8.135872-.691934-16.971461-.691934-20.507355 0-14.646089-11.873001-26.51909-26.51909-26.51909s-26.51909 11.873001-26.51909 26.51909 11.873001 26.519089 26.51909 26.519089z" fill="#fd8879" stroke="#ffbcb3" stroke-width="5" transform="matrix(-.1391731 -.99026807 -.99026807 .1391731 727.516077 632.420077)"/><path d="m239.408487 458.440004c5.505127 0 15.928716 2.150929 25.457063 8.220602 11.579538 7.376308 22.26721 18.609707 26.672112 14.246072 4.228119-4.188508-3.398307-17.764395-6.532324-32.540391-2.891602-13.633083-1.159457-28.438665-1.159457-34.363676 0-24.542095-19.895299-44.437394-44.437394-44.437394-24.542094 0-44.437393 19.895299-44.437393 44.437394 0 24.542094 19.895299 44.437393 44.437393 44.437393z" fill="#ffbcb3" stroke="#fd8879" stroke-width="8" transform="matrix(.68199836 -.7313537 -.7313537 -.68199836 388.908828 894.429069)"/><path d="m119.335765 404.197602c4.333301 0 12.538116 1.68258 20.038251 6.430632 9.114708 5.770175 17.527393 14.557593 20.994664 11.144104 3.328118-3.276494-2.674941-13.896341-5.141848-25.454984-2.276093-10.664589-.912654-22.246374-.912654-26.881262 0-19.198251-15.660369-34.76151-34.978413-34.76151-19.318043 0-34.9784117 15.563259-34.9784117 34.76151s15.6603687 34.76151 34.9784117 34.76151z" fill="#fd8879" stroke="#ffbcb3" stroke-width="5" transform="matrix(1 0 0 -1 0 757.211484)"/><path d="m59.2267891 269.014906c3.6195805 0 10.4730144 1.414219 16.7378333 5.404985 7.613461 4.849869 14.6405271 12.235747 17.5367192 9.366689 2.7799574-2.753914-2.2343623-11.67996-4.2949556-21.395071-1.9012075-8.963652-.7623343-18.698214-.7623343-22.593866 0-16.136248-13.0810145-29.217262-29.2172626-29.217262-16.1362484 0-29.2172622 13.081014-29.2172622 29.217262 0 16.136249 13.0810138 29.217263 29.2172622 29.217263z" fill="#ffbcb3" stroke="#fd8879" stroke-width="8" transform="matrix(.52991926 .8480481 .8480481 -.52991926 -180.673246 325.943163)"/><path d="m64.6734519 150.460417c6.5254409 0 18.8809268 2.567236 30.1752484 9.811686 13.7256777 8.803979 26.3941907 22.211585 31.6154937 17.003376 5.011754-4.999187-4.028146-21.202665-7.743018-38.838532-3.427528-16.271743-1.37435-33.942922-1.37435-41.0147098 0-29.2921773-23.5826728-53.0381791-52.6733741-53.0381791-29.090701 0-52.6733737 23.7460018-52.6733737 53.0381791 0 29.2921778 23.5826727 53.0381798 52.6733737 53.0381798z" fill="#fd8879" stroke="#ffbcb3" stroke-width="5" transform="matrix(-.05233596 .99862953 .99862953 .05233596 -37.627258 35.706935)"/><path d="m204.804694 109.083755c5.6078 0 16.225797 2.191044 25.931854 8.373921 11.795503 7.513881 22.682508 18.956791 27.169565 14.511771 4.306977-4.266627-3.461688-18.095713-6.654156-33.1472917-2.945532-13.8873484-1.181082-28.9690641-1.181082-35.004581 0-24.9998214-20.26636-45.2661808-45.266181-45.2661808s-45.266181 20.2663594-45.266181 45.2661808 20.26636 45.2661807 45.266181 45.2661807z" fill="#ffbcb3" stroke="#fd8879" stroke-width="8" transform="matrix(-.7193398 .69465837 .69465837 .7193398 307.330346 -124.16952)"/><circle cx="213.886339" cy="247.718061" fill="#fd8879" r="128.623188" stroke="#c55c4f" stroke-width="12"/><g fill="#ffbcb3"><circle cx="252.382716" cy="263.56951" r="8.605072"/><circle cx="228.831991" cy="287.120235" r="14.945652"/><circle cx="281.821121" cy="294.819511" r="20.833333"/></g></g></svg>