<svg height="16" viewBox="0 0 16 16" width="16" xmlns="http://www.w3.org/2000/svg"><title>Add resource</title><path fill="currentColor" d="m8 0c4.418278 0 8 3.581722 8 8s-3.581722 8-8 8-8-3.581722-8-8 3.581722-8 8-8zm0 1c-3.86599325 0-7 3.13400675-7 7 0 3.8659932 3.13400675 7 7 7 3.8659932 0 7-3.1340068 7-7 0-3.86599325-3.1340068-7-7-7zm.53001442 3.96751442-.00008494 2.43731213 2.43758492.00018787v1.125l-2.43731976-.00009259-.00018022 2.43759257h-1.125l-.00018022-2.43759257-2.43731978.00009259v-1.125l2.43758495-.00018787-.00008495-2.43731213z" fill-rule="evenodd"/></svg>
