<svg height="24" viewBox="0 0 24 24" width="24" xmlns="http://www.w3.org/2000/svg"><title>Twitter</title><path fill="currentColor" d="m22.99584 5.23008c-.8496.37344-1.7568.62784-2.712.744.97344-.58656 1.72224-1.51104 2.07648-2.61408-.91296.5328-1.9248.92064-3.00192 1.13664-.86016-.92064-2.08608-1.49664-3.44736-1.49664-2.60832 0-4.7232 2.11488-4.7232 4.72032 0 .3744.0432.7344.12192 1.07904-3.9264-.18528-7.4064-2.07072-9.73536-4.92096-.40992.69312-.63936 1.49856-.63936 2.376 0 1.6416.8352 3.08448 2.10048 3.93216-.77472-.02496-1.50336-.23808-2.13888-.59136v.05856c0 2.2896 1.62528 4.19904 3.78816 4.63392-.39648.10656-.81504.16416-1.24416.16416-.30144 0-.5904-.0288-.87936-.08256.60576 1.87488 2.3472 3.24192 4.41984 3.28032-1.6128 1.26624-3.65664 2.0208-5.85792 2.0208-.3744 0-.74784-.02208-1.1232-.06432 2.10144 1.33824 4.57728 2.12064 7.25472 2.12064 8.69184 0 13.43904-7.19616 13.43904-13.42656 0-.20064 0-.4032-.0144-.6048.92256-.66144 1.728-1.4976 2.3616-2.44608z" fill-rule="evenodd"/></svg>
