<svg height="24" viewBox="0 0 24 24" width="24" xmlns="http://www.w3.org/2000/svg"><title>Whatsapp</title><path fill="currentColor" d="m12 0c3.1578947 0 6.2105263 1.25764192 8.5263158 3.56331878 2.2105263 2.20087336 3.368421 5.24017467 3.4736842 8.17467252 0 6.6026201-5.3684211 11.9475982-12 11.9475982-1.8666667 0-3.73333333-.3651819-5.34325146-1.180755l-.34095907-.1816904-6.31578947 1.6768559 1.68421053-6.1834061c-1.05263158-1.7816594-1.57894737-3.7729258-1.57894737-5.8689956 0-6.60262013 5.36842105-11.9475983 11.89473684-11.9475983zm-3.68421053 6.49781659h-.63157894l-.16842106.05030568c-.15157894.05030568-.37894736.13834061-.56842105.2641048l-.12705282.12888718c-.35191276.36829479-.92557876 1.09176528-.92557876 2.38639667 0 1.04803498.53705693 2.09606988.88230781 2.68578048l.31541687.5265893c.30166827.4869658 2.12705568 3.08155 4.84347608 4.3191743l.2745887.1191109c.6447369.2751092 1.1282895.4699782 1.521176.584607l.1630345.044214c.7368421.209607 1.3684211.209607 1.8947369.1048035.6315789-.1048035 1.7894737-.7336245 2-1.3624454.2105263-.7336245.2105263-1.2576419.2105263-1.3624454-.0921053-.2751092-.2648026-.389738-.5180921-.4843068l-.1134868-.0397107c-.3157895-.1048035-1.7894737-.9432314-2-1.0480349-.3157895-.1048035-.5263158-.1048035-.7368422.1048035-.2105263.3144104-.8421052 1.0480349-.9473684 1.1528384-.1842105.1834061-.2878289.2063319-.5224095.1389874l-.1091694-.0341839c-.3157895-.1048035-1.2631579-.5240175-2.4210527-1.4672489-.94736837-.838428-1.47368416-1.7816594-1.68421048-2.0960699-.16842105-.2515284-.06736842-.4359825.03368421-.5533624l.23494737-.244821c.09347368-.1031266.19452632-.2288908.25768421-.354655.21052632-.10480352.31578947-.31441051.42105263-.5240175.10526316-.20960698 0-.41921397 0-.52401746 0-.1048035-.7368421-1.57205241-1.05263158-2.20087337-.10526315-.41921397-.42105263-.31441048-.52631579-.31441048z"/></svg>
